<svg width="28" height="28" viewBox="0 0 28 28" fill="none" xmlns="http://www.w3.org/2000/svg">
<path d="M16.1418 17.5141C15.934 17.0018 15.3661 15.6485 15.1499 15.1195C14.4258 15.3341 13.6551 15.3356 12.9301 15.1239C12.7128 15.658 12.1485 16.9964 11.9382 17.5141C13.3022 17.9711 14.7779 17.9711 16.1418 17.5141Z" fill="#2E9344"/>
<path d="M11.3614 12.8779C13.566 16.3521 18.707 13.3122 16.7142 9.71419C14.5172 6.24306 9.37965 9.28755 11.3614 12.8779Z" fill="#2E9344"/>
<path d="M8.97122 8.72233L10.5487 9.37778C10.9116 8.71475 11.4577 8.17018 12.1217 7.80909L11.4663 6.22726L11.1298 5.41449C9.84242 6.05521 8.79917 7.09846 8.15845 8.38588L8.97122 8.72233Z" fill="#2E9344"/>
<path d="M8.63473 9.53075L7.82197 9.19427C7.59321 9.8714 7.4766 10.5814 7.47675 11.2961C7.47553 12.0127 7.59368 12.7245 7.82635 13.4023L8.63473 13.0658L10.2165 12.4103C10.1653 12.2506 10.1273 12.0869 10.1029 11.9209C10.0114 11.3417 10.0487 10.7494 10.2122 10.1862L8.63473 9.53075Z" fill="#2E9344"/>
<path d="M11.1298 17.1776C12.6276 13.3805 12.2722 15.9074 10.5442 13.2188C10.0145 13.4422 8.67084 13.9879 8.15845 14.2062C8.79789 15.4946 9.84149 16.5382 11.1298 17.1776Z" fill="#2E9344"/>
<path d="M16.9502 17.1777C18.2385 16.5382 19.2821 15.4946 19.9216 14.2063C19.4148 13.9899 18.0526 13.4344 17.527 13.2144C17.1653 13.8779 16.6209 14.4239 15.9583 14.7874C16.1823 15.3172 16.7327 16.6647 16.9502 17.1777Z" fill="#2E9344"/>
<path d="M20.6033 11.2961C20.6034 10.5814 20.4868 9.8714 20.2581 9.19427L19.4453 9.53075L17.8679 10.1862C17.917 10.3554 17.955 10.5276 17.9815 10.7018C18.0647 11.273 18.026 11.8552 17.8679 12.4103L19.4453 13.0658L20.2537 13.4023C20.4863 12.7245 20.6045 12.0127 20.6033 11.2961Z" fill="#2E9344"/>
<path d="M17.5314 9.37776C18.0623 9.15197 19.4061 8.60225 19.9216 8.38586C19.2809 7.09844 18.2376 6.05521 16.9502 5.41449L16.6138 6.22726L15.9583 7.80908C16.6233 8.16894 17.1697 8.71382 17.5314 9.37776Z" fill="#2E9344"/>
<path d="M12.9258 7.46823C16.061 6.81491 14.5201 8.77538 16.1418 5.08235C14.7789 4.62075 13.3021 4.61924 11.9382 5.07805C12.1468 5.5897 12.7104 6.93947 12.9258 7.46823Z" fill="#2E9344"/>
<path d="M23.413 5.71161C23.8525 5.63414 24.2473 5.39545 24.5202 5.04223C24.793 4.68901 24.9242 4.2467 24.8881 3.80184C24.8521 3.35698 24.6513 2.94159 24.3251 2.63695C23.9989 2.33232 23.5708 2.16036 23.1245 2.15474H20.3935C20.0366 2.15489 19.6944 2.29674 19.442 2.5491C19.1897 2.80146 19.0478 3.14369 19.0477 3.50057V4.8814C19.0498 5.07293 19.0917 5.26193 19.1707 5.43644C19.2497 5.61094 19.364 5.76715 19.5065 5.89517C20.3608 6.6617 21.0443 7.59938 21.5125 8.64731C21.9808 9.69523 22.2233 10.8299 22.2244 11.9777C22.3172 16.913 17.5597 20.9463 12.6897 20.0528C5.9429 19.049 3.49755 10.3768 8.56931 5.89513C9.25456 5.3253 8.98087 4.2764 9.03242 3.50056C9.03225 3.14366 8.8904 2.80144 8.63803 2.54908C8.38566 2.29672 8.04343 2.15488 7.68654 2.15472H4.9555C4.50913 2.16024 4.0809 2.33214 3.75461 2.63679C3.42833 2.94144 3.2275 3.3569 3.19143 3.80184C3.15536 4.24677 3.28664 4.68916 3.55959 5.04238C3.83254 5.39561 4.22749 5.63426 4.66714 5.7116C-4.75817 17.5347 10.6839 32.4636 22.2027 22.6745C27.065 18.4766 27.6421 10.5354 23.413 5.71161ZM6.2489 19.7077C6.16608 19.7867 6.05558 19.8301 5.94112 19.8285C5.82667 19.827 5.71738 19.7806 5.63673 19.6994C5.55608 19.6181 5.51049 19.5085 5.50976 19.3941C5.50903 19.2796 5.55321 19.1694 5.63281 19.0872C5.71563 19.0081 5.82613 18.9648 5.94059 18.9663C6.05505 18.9679 6.16433 19.0142 6.24498 19.0954C6.32564 19.1767 6.37122 19.2863 6.37195 19.4008C6.37269 19.5152 6.32851 19.6254 6.2489 19.7077ZM19.6944 21.7614C17.9538 22.6969 16.0084 23.1857 14.0324 23.1842C12.0564 23.1827 10.1117 22.6908 8.37258 21.7526C8.27118 21.6976 8.1958 21.6045 8.16302 21.4939C8.13024 21.3833 8.14275 21.2642 8.19779 21.1628C8.25284 21.0614 8.34591 20.986 8.45653 20.9532C8.56716 20.9204 8.68627 20.9329 8.78767 20.988C10.3999 21.8555 12.2021 22.31 14.0329 22.3107C15.8638 22.3115 17.6663 21.8585 19.2792 20.9923C19.3809 20.9409 19.4986 20.9313 19.6073 20.9654C19.7159 20.9995 19.807 21.0746 19.8611 21.1748C19.9152 21.2751 19.928 21.3924 19.8969 21.502C19.8658 21.6116 19.7931 21.7046 19.6944 21.7614ZM22.4473 19.7077C22.3644 19.7867 22.2539 19.8301 22.1395 19.8285C22.025 19.827 21.9157 19.7806 21.8351 19.6994C21.7544 19.6181 21.7088 19.5085 21.7081 19.3941C21.7074 19.2796 21.7516 19.1694 21.8312 19.0872C21.914 19.0081 22.0245 18.9648 22.1389 18.9663C22.2534 18.9679 22.3627 19.0142 22.4433 19.0954C22.524 19.1767 22.5696 19.2863 22.5703 19.4008C22.571 19.5152 22.5269 19.6254 22.4473 19.7077Z" fill="#2E9344"/>
</svg>
