<svg width="48" height="48" viewBox="0 0 48 48" fill="none" xmlns="http://www.w3.org/2000/svg">
<g clip-path="url(#clip0_9142_1455)">
<path d="M34.7588 43.0345H47.1726C47.4593 43.0343 47.7255 42.8858 47.8762 42.6419C48.0269 42.398 48.0406 42.0934 47.9124 41.837L45.385 36.7837C45.2686 36.5508 45.2686 36.2767 45.385 36.0439L47.9116 30.9906C48.0397 30.7343 48.0261 30.4299 47.8756 30.186C47.7251 29.9422 47.4591 29.7935 47.1726 29.7931H34.7588V43.0345Z" fill="#EB5463"/>
<path d="M41.3795 34.7586L34.7588 29.7931V34.7586H41.3795Z" fill="#D94452"/>
<path d="M21.5171 19.0345H26.4826V23.7517H21.5171V19.0345Z" fill="#F5B945"/>
<path d="M36.4136 3.31033L36.4135 7.44826C36.4176 10.1349 35.546 12.7497 33.9308 14.8965C33.4817 15.4943 32.9774 16.0484 32.4246 16.5517C27.6752 20.9655 20.3243 20.9655 15.5749 16.5517C15.0221 16.0484 14.5178 15.4943 14.0687 14.8965C12.4535 12.7497 11.5819 10.1349 11.586 7.44826L11.5859 3.31033H36.4136Z" fill="#FDCD56"/>
<path d="M24.3127 6.80938L25.324 8.952C25.3728 9.0593 25.4717 9.13531 25.588 9.15476L27.8349 9.49572C27.9723 9.52539 28.0826 9.62765 28.1226 9.76243C28.1626 9.89722 28.1259 10.0431 28.0269 10.1429L26.4156 11.7848C26.3287 11.8748 26.29 12.0009 26.3113 12.1241L26.6936 14.453C26.7251 14.5873 26.6763 14.7277 26.5683 14.8135C26.4604 14.8994 26.3126 14.9153 26.1888 14.8543L24.1587 13.7379C24.0601 13.6825 23.9396 13.6825 23.8409 13.7379L21.8109 14.8519C21.6871 14.9128 21.5393 14.8969 21.4313 14.811C21.3234 14.7252 21.2746 14.5848 21.306 14.4505L21.6884 12.1217C21.7097 11.9984 21.671 11.8724 21.5841 11.7823L19.972 10.1404C19.873 10.0406 19.8363 9.89473 19.8763 9.75995C19.9162 9.62516 20.0266 9.52291 20.164 9.49324L22.4109 9.15228C22.5271 9.13283 22.6261 9.05682 22.6749 8.94952L23.687 6.8069C23.741 6.6818 23.8644 6.60099 24.0007 6.60153C24.1369 6.60208 24.2597 6.68386 24.3127 6.80938Z" fill="#FA6C51"/>
<path d="M21.517 23.1724H26.4825C27.3966 23.1724 28.1377 23.9135 28.1377 24.8276V28.9655H19.8618V24.8276C19.8618 23.9135 20.6029 23.1724 21.517 23.1724Z" fill="#FDCD56"/>
<path d="M37.2414 0H10.7587C9.84456 0 9.10352 0.741046 9.10352 1.65517C9.10352 2.5693 9.84456 3.31034 10.7587 3.31034H37.2414C38.1556 3.31034 38.8966 2.5693 38.8966 1.65517C38.8966 0.741046 38.1556 0 37.2414 0Z" fill="#F5B945"/>
<path d="M14.8964 28.1379H33.1033C34.0174 28.1379 34.7585 28.879 34.7585 29.7931V36.4138H13.2412V29.7931C13.2412 28.879 13.9823 28.1379 14.8964 28.1379Z" fill="#636C77"/>
<path d="M13.2414 43.0345H0.827634C0.540924 43.0343 0.27472 42.8858 0.124024 42.6419C-0.0266716 42.398 -0.0403875 42.0934 0.0877715 41.837L2.61522 36.7837C2.7316 36.5508 2.7316 36.2767 2.61522 36.0439L0.088599 30.9906C-0.0394946 30.7343 -0.0258628 30.4299 0.124634 30.186C0.275131 29.9422 0.541072 29.7935 0.827634 29.7931H13.2414V43.0345Z" fill="#EB5463"/>
<path d="M6.62061 34.7586H41.3792V47.1724C41.3792 47.6295 41.0087 48 40.5516 48H7.44819C6.99113 48 6.62061 47.6295 6.62061 47.1724V34.7586Z" fill="#F76C82"/>
<path d="M6.62061 34.7586L13.2413 29.7931V34.7586H6.62061Z" fill="#D94452"/>
<path d="M24.0001 48C27.6566 48 30.6208 45.0358 30.6208 41.3793C30.6208 37.7228 27.6566 34.7586 24.0001 34.7586C20.3436 34.7586 17.3794 37.7228 17.3794 41.3793C17.3794 45.0358 20.3436 48 24.0001 48Z" fill="#FDCD56"/>
<path d="M26.4828 19.6055V23.1724H24.8276V19.829C25.3843 19.7969 25.9376 19.7222 26.4828 19.6055Z" fill="#E8AA3D"/>
<path d="M28.138 24.8276V28.1379H26.4828V24.8276C26.4851 24.4312 26.3406 24.048 26.0773 23.7517C25.7666 23.3837 25.3093 23.1717 24.8276 23.1724L26.4828 23.1724C27.3958 23.1752 28.1353 23.9146 28.138 24.8276Z" fill="#F5B945"/>
<path d="M38.8963 1.65517C38.8986 2.09428 38.7224 2.51548 38.408 2.82207C38.1014 3.13644 37.6802 3.31268 37.2411 3.31034L35.5859 3.31037C36.025 3.31268 36.4462 3.13644 36.7528 2.82207C37.0672 2.51548 37.2434 2.09428 37.2411 1.65517C37.2384 0.742178 36.4989 0.00272673 35.5859 0H37.2411C38.1541 0.00272673 38.8936 0.742178 38.8963 1.65517Z" fill="#E8AA3D"/>
<path d="M36.4138 3.31033L36.4138 7.44826C36.4178 10.1349 35.5463 12.7497 33.931 14.8965C33.4819 15.4943 32.9776 16.0484 32.4248 16.5517C30.7661 18.1017 28.7086 19.1592 26.4827 19.6055C25.9375 19.7222 25.3842 19.7969 24.8276 19.829C24.5545 19.8538 24.2814 19.8621 24 19.8621C23.7186 19.8621 23.4538 19.8538 23.1807 19.829C23.7346 19.7969 24.2851 19.7222 24.8276 19.6055C25.39 19.4956 25.9432 19.3435 26.4827 19.1503C28.0759 18.5896 29.5356 17.7048 30.7696 16.5517C31.3225 16.0484 31.8268 15.4943 32.2758 14.8965C33.8911 12.7497 34.7627 10.1349 34.7586 7.44826V3.31033H36.4138Z" fill="#F5B945"/>
<path d="M34.7586 29.7931V34.7586H33.1034V29.7931C33.1007 28.8801 32.3612 28.1407 31.4482 28.1379H33.1034C34.0164 28.1407 34.7559 28.8801 34.7586 29.7931Z" fill="#5A636B"/>
<path d="M25.4705 43.0345H24.8275V38.069C24.8274 37.7343 24.6257 37.4326 24.3165 37.3045C24.0073 37.1765 23.6514 37.2472 23.4148 37.4838L22.5872 38.3114C22.3506 38.5481 22.2798 38.904 22.4079 39.2132C22.5359 39.5224 22.8376 39.7241 23.1723 39.7241V43.0345H22.5292C22.0722 43.0345 21.7017 43.405 21.7017 43.8621C21.7017 44.3191 22.0722 44.6896 22.5292 44.6896H25.4705C25.9276 44.6896 26.2981 44.3191 26.2981 43.8621C26.2981 43.405 25.9276 43.0345 25.4705 43.0345Z" fill="white"/>
<path d="M18.2069 32.2759H17.3793C16.9223 32.2759 16.5518 31.9053 16.5518 31.4483C16.5518 30.9912 16.9223 30.6207 17.3793 30.6207H18.2069C18.664 30.6207 19.0345 30.9912 19.0345 31.4483C19.0345 31.9053 18.664 32.2759 18.2069 32.2759Z" fill="#A9B0BB"/>
<path d="M30.6205 32.2759H21.517C21.06 32.2759 20.6895 31.9053 20.6895 31.4483C20.6895 30.9912 21.06 30.6207 21.517 30.6207H30.6205C31.0775 30.6207 31.4481 30.9912 31.4481 31.4483C31.4481 31.9053 31.0775 32.2759 30.6205 32.2759Z" fill="#A9B0BB"/>
<path d="M41.3793 9.10344V13.2414C41.3793 15.0696 39.8972 16.5517 38.0689 16.5517H32.4248C32.9776 16.0484 33.4819 15.4943 33.931 14.8965H38.0689C38.9819 14.8938 39.7214 14.1544 39.7241 13.2414V9.10344C39.7214 8.19044 38.9819 7.45099 38.0689 7.44826H36.4138V5.79309H38.0689C39.8972 5.79309 41.3793 7.27518 41.3793 9.10344Z" fill="#F5B945"/>
<path d="M15.5751 16.5517H9.93095C8.1027 16.5517 6.62061 15.0696 6.62061 13.2414V9.10344C6.62061 7.27518 8.1027 5.79309 9.93095 5.79309H11.5861V7.44826H9.93095C9.01796 7.45099 8.2785 8.19044 8.27578 9.10344V13.2414C8.2785 14.1544 9.01796 14.8938 9.93095 14.8965H14.0689C14.518 15.4943 15.0223 16.0484 15.5751 16.5517Z" fill="#F5B945"/>
</g>
<defs>
<clipPath id="clip0_9142_1455">
<rect width="48" height="48" fill="white"/>
</clipPath>
</defs>
</svg>
