<svg width="48" height="48" viewBox="0 0 48 48" fill="none" xmlns="http://www.w3.org/2000/svg">
<g clip-path="url(#clip0_9142_1433)">
<path d="M31.4483 3.31033V45.5172C31.4483 46.8884 30.3367 48 28.9655 48H2.48276C1.11157 48 0 46.8884 0 45.5172V3.31033H7.44828C7.90534 3.31033 8.27586 3.68086 8.27586 4.13792V4.96551C8.27586 5.42257 8.64639 5.79309 9.10345 5.79309H22.3448C22.8019 5.79309 23.1724 5.42257 23.1724 4.96551V4.13792C23.1724 3.68086 23.5429 3.31033 24 3.31033H31.4483Z" fill="#9ED26A"/>
<path d="M31.4483 2.48276V4.13793H24C23.5429 4.13793 23.1724 4.50845 23.1724 4.96552V5.7931C23.1724 6.25017 22.8019 6.62069 22.3448 6.62069H9.10345C8.64639 6.62069 8.27586 6.25017 8.27586 5.7931V4.96552C8.27586 4.50845 7.90534 4.13793 7.44828 4.13793H0V2.48276C0 1.11157 1.11157 0 2.48276 0H28.9655C30.3367 0 31.4483 1.11157 31.4483 2.48276Z" fill="#636C77"/>
<path d="M41.3793 33.931C44.5787 33.931 47.1724 31.3374 47.1724 28.1379C47.1724 24.9385 44.5787 22.3448 41.3793 22.3448C38.1798 22.3448 35.5862 24.9385 35.5862 28.1379C35.5862 31.3374 38.1798 33.931 41.3793 33.931Z" fill="#FDCD56"/>
<path d="M46.3448 44.6897H36.4137C35.4996 44.6897 34.7585 45.4307 34.7585 46.3448C34.7585 47.259 35.4996 48 36.4137 48H46.3448C47.2589 48 47.9999 47.259 47.9999 46.3448C47.9999 45.4307 47.2589 44.6897 46.3448 44.6897Z" fill="#F5B945"/>
<path d="M46.3448 41.3793H36.4137C35.4996 41.3793 34.7585 42.1203 34.7585 43.0345C34.7585 43.9486 35.4996 44.6896 36.4137 44.6896H46.3448C47.2589 44.6896 47.9999 43.9486 47.9999 43.0345C47.9999 42.1203 47.2589 41.3793 46.3448 41.3793Z" fill="#FDCD56"/>
<path d="M46.3448 38.069H36.4137C35.4996 38.069 34.7585 38.81 34.7585 39.7241C34.7585 40.6383 35.4996 41.3793 36.4137 41.3793H46.3448C47.2589 41.3793 47.9999 40.6383 47.9999 39.7241C47.9999 38.81 47.2589 38.069 46.3448 38.069Z" fill="#F5B945"/>
<path d="M46.3448 34.7586H36.4137C35.4996 34.7586 34.7585 35.4997 34.7585 36.4138C34.7585 37.3279 35.4996 38.069 36.4137 38.069H46.3448C47.2589 38.069 47.9999 37.3279 47.9999 36.4138C47.9999 35.4997 47.2589 34.7586 46.3448 34.7586Z" fill="#FDCD56"/>
<path d="M31.4483 13.2414V45.5172C31.4483 46.8884 30.3367 48 28.9655 48H2.48276C1.11157 48 0 46.8884 0 45.5172V4.13792H0.827586V3.31033H1.65517V43.8621C1.63737 44.503 1.87505 45.1248 2.31588 45.5905C2.7567 46.0561 3.36453 46.3275 4.00552 46.3448H27.4428C27.639 46.3469 27.8343 46.319 28.0221 46.2621C29.0877 45.9553 29.8143 44.9708 29.7931 43.8621V13.2414H31.4483Z" fill="#636C77"/>
<path d="M31.4482 4.13794V45.5173C31.4482 46.8884 30.3367 48 28.9655 48H27.3103C28.6815 48 29.7931 46.8884 29.7931 45.5173V4.13794H31.4482Z" fill="#424852"/>
<path d="M31.4482 2.48276V4.13793H29.7931V2.48276C29.7931 1.11157 28.6815 0 27.3103 0H28.9655C30.3367 0 31.4482 1.11157 31.4482 2.48276Z" fill="#424852"/>
<path d="M31.4482 2.48276V4.13793H29.7931V2.48276C29.7931 1.11157 28.6815 0 27.3103 0H28.9655C30.3367 0 31.4482 1.11157 31.4482 2.48276Z" fill="#424852"/>
<path d="M13.2414 4.13793H12.4138C11.9567 4.13793 11.5862 3.76741 11.5862 3.31034C11.5862 2.85328 11.9567 2.48276 12.4138 2.48276H13.2414C13.6984 2.48276 14.0689 2.85328 14.0689 3.31034C14.0689 3.76741 13.6984 4.13793 13.2414 4.13793Z" fill="#424852"/>
<path d="M19.0345 4.13793H16.5517C16.0946 4.13793 15.7241 3.76741 15.7241 3.31034C15.7241 2.85328 16.0946 2.48276 16.5517 2.48276H19.0345C19.4915 2.48276 19.8621 2.85328 19.8621 3.31034C19.8621 3.76741 19.4915 4.13793 19.0345 4.13793Z" fill="#424852"/>
<path d="M42.2069 29.7931V25.6552C42.2068 25.3205 42.0052 25.0188 41.696 24.8907C41.3868 24.7627 41.0309 24.8334 40.7942 25.0701L39.9666 25.8976C39.73 26.1343 39.6592 26.4902 39.7873 26.7994C39.9153 27.1086 40.217 27.3103 40.5517 27.3103V29.7931C40.0946 29.7931 39.7241 30.1636 39.7241 30.6207C39.7241 31.0777 40.0946 31.4483 40.5517 31.4483H42.2069C42.6639 31.4483 43.0345 31.0777 43.0345 30.6207C43.0345 30.1636 42.6639 29.7931 42.2069 29.7931Z" fill="#F5B945"/>
<path d="M27.3103 8.27585H4.13784C3.22371 8.27585 2.48267 9.01689 2.48267 9.93102V43.0345C2.48267 43.9486 3.22371 44.6896 4.13784 44.6896H27.3103C28.2244 44.6896 28.9654 43.9486 28.9654 43.0345V9.93102C28.9654 9.01689 28.2244 8.27585 27.3103 8.27585ZM18.2068 9.93102V11.5862H13.2413V9.93102H18.2068ZM11.5861 9.93102V11.5862C11.5861 12.5003 12.3272 13.2414 13.2413 13.2414H18.2068C19.1209 13.2414 19.862 12.5003 19.862 11.5862V9.93102H23.1723V14.8965H8.27577V9.93102H11.5861ZM19.5988 16.5517C19.0145 17.5034 17.4835 18.2069 15.724 18.2069C13.9646 18.2069 12.4336 17.5034 11.8493 16.5517H19.5988ZM6.6206 9.93102V14.8965C6.6206 15.8107 7.36164 16.5517 8.27577 16.5517H10.0435C10.5665 18.4626 12.8738 19.8621 15.724 19.8621C18.5743 19.8621 20.8816 18.4626 21.4046 16.5517H23.1723C24.0864 16.5517 24.8275 15.8107 24.8275 14.8965V9.93102H27.3103V25.6552H20.6151C20.2134 23.267 18.1458 21.518 15.724 21.518C13.3023 21.518 11.2347 23.267 10.833 25.6552H4.13784V9.93102H6.6206ZM12.5312 25.6552C12.9028 24.1951 14.2175 23.1732 15.724 23.1732C17.2306 23.1732 18.5453 24.1951 18.9169 25.6552H12.5312ZM18.9169 27.3103C18.5453 28.7704 17.2306 29.7923 15.724 29.7923C14.2175 29.7923 12.9028 28.7704 12.5312 27.3103H18.9169ZM23.1723 38.069V43.0345H19.862V41.3793C19.862 40.4652 19.1209 39.7241 18.2068 39.7241H13.2413C12.3272 39.7241 11.5861 40.4652 11.5861 41.3793V43.0345H8.27577V38.069H23.1723ZM11.8493 36.4138C12.4336 35.4621 13.9646 34.7586 15.724 34.7586C17.4835 34.7586 19.0145 35.4621 19.5988 36.4138H11.8493ZM18.2068 43.0345H13.2413V41.3793H18.2068V43.0345ZM24.8275 43.0345V38.069C24.8275 37.1548 24.0864 36.4138 23.1723 36.4138H21.4046C20.8816 34.5029 18.5743 33.1034 15.724 33.1034C12.8738 33.1034 10.5665 34.5029 10.0435 36.4138H8.27577C7.36164 36.4138 6.6206 37.1548 6.6206 38.069V43.0345H4.13784V27.3103H10.833C11.2347 29.6985 13.3023 31.4475 15.724 31.4475C18.1458 31.4475 20.2134 29.6985 20.6151 27.3103H27.3103V43.0345H24.8275Z" fill="#F4F6F8"/>
<path d="M41.3792 34.7586C37.7227 34.7586 34.7585 31.7944 34.7585 28.1379C34.7585 24.4814 37.7227 21.5172 41.3792 21.5172C45.0357 21.5172 47.9999 24.4814 47.9999 28.1379C47.9958 31.7927 45.034 34.7545 41.3792 34.7586ZM41.3792 23.1724C38.6369 23.1724 36.4137 25.3956 36.4137 28.1379C36.4137 30.8803 38.6369 33.1034 41.3792 33.1034C44.1216 33.1034 46.3448 30.8803 46.3448 28.1379C46.342 25.3967 44.1205 23.1752 41.3792 23.1724Z" fill="#F5B945"/>
</g>
<defs>
<clipPath id="clip0_9142_1433">
<rect width="48" height="48" fill="white"/>
</clipPath>
</defs>
</svg>
