<svg width="48" height="48" viewBox="0 0 48 48" fill="none" xmlns="http://www.w3.org/2000/svg">
<g clip-path="url(#clip0_9142_1483)">
<path d="M48 1.65517V34.7586C47.9973 35.6716 47.2578 36.4111 46.3448 36.4138H31.7297L24.3311 30.091L26.4828 16.6428V1.65517C26.4855 0.742178 27.225 0.00272673 28.138 0H46.3448C47.2578 0.00272673 47.9973 0.742178 48 1.65517Z" fill="#9ED26A"/>
<path d="M29.793 26.011V6.62068C31.6212 6.62068 33.1033 5.13859 33.1033 3.31033H41.3792C41.3792 5.13859 42.8613 6.62068 44.6895 6.62068V29.7931C42.8613 29.7931 41.3792 31.2752 41.3792 33.1034H34.4937L29.793 26.011Z" fill="#C6EA94"/>
<path d="M17.6938 45.8317C16.8625 46.367 16.0689 46.9588 15.3186 47.6027C15.0213 47.8633 14.6381 48.0048 14.2428 48H1.65517C0.742178 47.9973 0.00272673 47.2578 0 46.3448V40.32C0.00302153 39.4377 0.471911 38.6227 1.2331 38.1765L6.79448 34.9324L17.6938 45.8317Z" fill="#AC92EA"/>
<path d="M41.3793 24.2152C41.3817 24.6162 41.2441 25.0054 40.9903 25.3159L31.7296 36.4138L30.0082 38.4745C29.3342 39.2814 28.4964 39.9359 27.5503 40.3945C24.1584 42.0069 20.8669 43.8226 17.6937 45.8317L6.79443 34.9324L8.40823 33.9972C9.39185 33.4161 10.1479 32.517 10.5517 31.4483L14.011 22.229C14.5667 20.7416 15.8001 19.6097 17.3296 19.1835L26.4827 16.6428V28.9655L26.5406 29.0483L26.5489 29.0566L33.4179 22.7835C35.5707 21.0672 38.6328 21.0983 40.7503 22.8579C41.15 23.1953 41.3802 23.6921 41.3793 24.2152Z" fill="#937661"/>
<path d="M37.2416 10.7586C38.1557 10.7586 38.8968 10.0176 38.8968 9.10345C38.8968 8.18932 38.1557 7.44827 37.2416 7.44827C36.3275 7.44827 35.5864 8.18932 35.5864 9.10345C35.5864 10.0176 36.3275 10.7586 37.2416 10.7586Z" fill="#89C053"/>
<path d="M37.2415 21.5172C39.0698 21.5172 40.5518 20.0351 40.5518 18.2069C40.5518 16.3786 39.0698 14.8965 37.2415 14.8965C35.4132 14.8965 33.9312 16.3786 33.9312 18.2069C33.9312 20.0351 35.4132 21.5172 37.2415 21.5172Z" fill="#89C053"/>
<path d="M48.0003 1.65517V34.7586C47.9975 35.6716 47.2581 36.4111 46.3451 36.4138H44.3589C45.2719 36.4111 46.0113 35.6716 46.0141 34.7586V1.65517C46.0113 0.742178 45.2719 0.00272673 44.3589 0H46.3451C47.2581 0.00272673 47.9975 0.742178 48.0003 1.65517Z" fill="#89C053"/>
<path d="M17.694 45.8317C16.8627 46.367 16.0691 46.9588 15.3188 47.6028C15.0214 47.8633 14.6383 48.0048 14.2429 48H1.65536C1.06463 47.9994 0.518998 47.684 0.223633 47.1724H11.7602C12.1555 47.1772 12.5387 47.0357 12.836 46.7752C13.5863 46.1312 14.3799 45.5394 15.2112 45.0041C15.534 44.789 15.8733 44.5738 16.2209 44.3586L17.694 45.8317Z" fill="#9579DA"/>
<path d="M41.3793 24.2152C41.3818 24.6162 41.2442 25.0054 40.9904 25.3159L31.7297 36.4138L30.0083 38.4745C29.3343 39.2814 28.4965 39.9359 27.5504 40.3945C24.1584 42.0069 20.8669 43.8227 17.6938 45.8317L16.2207 44.3586C19.2828 42.4386 23.0566 40.5435 25.0676 39.5669C26.0137 39.1083 26.8515 38.4539 27.5255 37.6469L29.2469 35.5862L38.5076 24.4883C38.7614 24.1779 38.899 23.7886 38.8966 23.3876C38.8975 22.8645 38.6673 22.3678 38.2676 22.0304C38.0543 21.8529 37.8274 21.6924 37.589 21.5504C38.7512 21.6547 39.854 22.1108 40.7504 22.8579C41.1501 23.1953 41.3803 23.6921 41.3793 24.2152Z" fill="#846855"/>
<path d="M26.5406 29.0483L25.4979 30.091C25.3453 30.2497 25.1346 30.3394 24.9144 30.3394C24.6943 30.3394 24.4836 30.2497 24.331 30.091C24.0101 29.7682 24.0101 29.2469 24.331 28.9241L26.4827 26.7724V28.9655L26.5406 29.0483Z" fill="#846855"/>
</g>
<defs>
<clipPath id="clip0_9142_1483">
<rect width="48" height="48" fill="white"/>
</clipPath>
</defs>
</svg>
