<svg width="40" height="40" viewBox="0 0 40 40" fill="none" xmlns="http://www.w3.org/2000/svg">
<g clip-path="url(#clip0_9142_1114)">
<path d="M31.6687 0H8.33125C3.73003 0 0 3.73003 0 8.33125V31.6687C0 36.27 3.73003 40 8.33125 40H31.6687C36.27 40 40 36.27 40 31.6687V8.33125C40 3.73003 36.27 0 31.6687 0Z" fill="#01494F"/>
<path d="M29.4985 16.9006L20.3844 6.47012C20.2875 6.35918 20.1477 6.2959 20.0008 6.2959C19.8539 6.2959 19.7141 6.35996 19.6172 6.47012L10.5024 16.9006C10.3711 17.0506 10.3399 17.2639 10.4219 17.4459C10.5047 17.6279 10.686 17.7451 10.886 17.7451H13.9141V33.1943C13.9141 33.4756 14.1422 33.7037 14.4235 33.7037H25.5789C25.8602 33.7037 26.0883 33.4756 26.0883 33.1943V17.7451H29.1164C29.3164 17.7451 29.4977 17.6279 29.5805 17.4459C29.6625 17.2639 29.6313 17.0506 29.5 16.9006H29.4985ZM25.0688 32.685H14.9321V17.7451H25.0688V32.685ZM12.0071 16.7264L20 7.58027L27.993 16.7264H12.0071Z" fill="white"/>
</g>
<rect x="0.5" y="0.5" width="39" height="39" rx="5.5" stroke="white"/>
<defs>
<clipPath id="clip0_9142_1114">
<rect width="40" height="40" rx="6" fill="white"/>
</clipPath>
</defs>
</svg>
